<svg width="219" height="45" viewBox="0 0 219 45" fill="none" xmlns="http://www.w3.org/2000/svg">
<g clip-path="url(#clip0_4_2)">
<path d="M95.2135 2.84546C96.7145 2.84546 98.0369 2.94385 99.1834 3.14063C100.33 3.33999 101.347 3.5549 102.234 3.7931C103.122 4.02872 103.893 4.2488 104.545 4.44557C105.198 4.64494 105.759 4.74074 106.235 4.74074C106.789 4.74074 107.221 4.5828 107.54 4.26692L109.198 15.8276L108.96 15.8872C108.645 14.8204 108.073 13.575 107.242 12.151C106.414 10.7269 105.366 9.37538 104.1 8.08855C102.835 6.80432 101.355 5.71686 99.6569 4.82877C97.9567 3.94068 96.0805 3.49534 94.0283 3.49534C92.1314 3.49534 90.294 3.93033 88.5161 4.80029C86.7382 5.67026 85.1673 6.91566 83.8061 8.53648C82.4423 10.1573 81.3476 12.1147 80.5169 14.4062C79.6888 16.6976 79.2721 19.2687 79.2721 22.1142C79.2721 25.3144 79.7949 28.1806 80.843 30.7102C81.8885 33.2399 83.2808 35.3656 85.0198 37.0848C86.7589 38.804 88.7438 40.1193 90.9746 41.0281C93.2053 41.9395 95.5267 42.3926 97.936 42.3926C100.86 42.3926 103.298 41.8101 105.255 40.6424C107.211 39.4772 108.523 38.0842 109.196 36.4634L109.434 36.6421C109.079 37.8279 108.466 38.9257 107.597 39.9329C106.727 40.9401 105.661 41.8204 104.398 42.5713C103.132 43.3222 101.681 43.9151 100.043 44.3501C98.4018 44.785 96.5955 45.0025 94.6209 45.0025C91.7354 45.0025 89.0595 44.5184 86.5907 43.55C84.1218 42.5816 81.9765 41.1887 80.1624 39.3711C78.3457 37.5535 76.9327 35.3604 75.926 32.7894C74.9193 30.2209 74.4147 27.334 74.4147 24.1337C74.4147 21.1691 74.8676 18.3935 75.7785 15.8043C76.6868 13.2151 78.0196 10.9625 79.7794 9.04655C81.5365 7.13056 83.7104 5.61847 86.2983 4.5103C88.8861 3.40472 91.857 2.85064 95.2161 2.85064L95.2135 2.84546Z" fill="#01957D"/>
<path d="M112.457 44.2284C112.969 44.2284 113.523 44.1404 114.115 43.9617C114.708 43.7831 115.252 43.418 115.746 42.8639C116.24 42.3098 116.644 41.5098 116.96 40.4637C117.275 39.4177 117.433 38.0247 117.433 36.2848V6.87687C117.433 5.49425 117.167 4.51553 116.633 3.94333C116.1 3.37112 115.616 3.08372 115.182 3.08372V2.84551C116.209 2.84551 117.117 2.74712 117.907 2.55035C118.696 2.35357 119.369 2.11536 119.923 1.83832C120.476 1.56128 120.929 1.25575 121.286 0.91916C121.641 0.585155 121.9 0.277043 122.058 0H122.177V22.4689C122.808 21.3219 123.569 20.2862 124.459 19.3567C125.347 18.4272 126.304 17.6375 127.332 16.985C128.359 16.3326 129.415 15.8277 130.502 15.473C131.589 15.1182 132.624 14.9396 133.613 14.9396C135.548 14.9396 137.197 15.6413 138.561 17.0446C139.924 18.4479 140.605 20.7316 140.605 23.893V36.2848C140.605 38.0247 140.763 39.4177 141.079 40.4637C141.394 41.5124 141.798 42.3124 142.292 42.8639C142.787 43.418 143.33 43.7831 143.923 43.9617C144.515 44.1404 145.069 44.2284 145.582 44.2284V44.4666H130.885V44.2284C131.397 44.2284 131.951 44.1404 132.544 43.9617C133.136 43.7831 133.68 43.418 134.174 42.8639C134.668 42.3098 135.072 41.5098 135.388 40.4637C135.704 39.4177 135.861 38.0247 135.861 36.2848V23.7739C135.861 21.4825 135.388 19.8124 134.438 18.7638C133.491 17.7178 132.324 17.1922 130.942 17.1922C130.191 17.1922 129.392 17.3501 128.543 17.666C127.694 17.9819 126.884 18.4376 126.113 19.0305C125.342 19.6234 124.612 20.3458 123.921 21.1951C123.23 22.0469 122.648 23.023 122.172 24.1286V36.2822C122.172 38.0222 122.329 39.4151 122.645 40.4612C122.961 41.5098 123.365 42.3098 123.859 42.8613C124.353 43.4154 124.897 43.7805 125.489 43.9591C126.082 44.1378 126.636 44.2258 127.148 44.2258V44.464H112.451V44.2258L112.457 44.2284Z" fill="#01957D"/>
<path d="M148.545 44.464V44.2258C149.057 44.2258 149.611 44.1378 150.204 43.9591C150.796 43.7805 151.34 43.4154 151.834 42.8613C152.328 42.3072 152.732 41.5072 153.048 40.4612C153.363 39.4151 153.521 38.0222 153.521 36.2822V6.87687C153.521 5.49425 153.255 4.51553 152.722 3.94333C152.188 3.37112 151.704 3.08372 151.27 3.08372V2.84551C152.297 2.84551 153.205 2.74712 153.995 2.55035C154.784 2.35357 155.457 2.11536 156.011 1.83832C156.565 1.56128 157.017 1.25575 157.375 0.91916C157.729 0.585155 157.988 0.277043 158.146 0H158.265V36.2848C158.265 38.0247 158.423 39.4177 158.738 40.4637C159.054 41.5124 159.458 42.3124 159.952 42.8639C160.446 43.418 160.99 43.7831 161.582 43.9617C162.175 44.1404 162.729 44.2284 163.241 44.2284V44.4666H148.545V44.464Z" fill="#01957D"/>
<path d="M177.521 14.704C179.576 14.704 181.452 15.0691 183.15 15.8018C184.848 16.5345 186.299 17.5495 187.505 18.8544C188.709 20.1594 189.638 21.7284 190.29 23.5668C190.942 25.4051 191.268 27.4298 191.268 29.6436C191.268 31.8573 190.942 33.8821 190.29 35.7204C189.638 37.5587 188.709 39.1303 187.505 40.4327C186.299 41.7376 184.848 42.7552 183.15 43.4853C181.45 44.2181 179.573 44.5832 177.521 44.5832C175.469 44.5832 173.66 44.2181 171.981 43.4853C170.301 42.7552 168.86 41.7351 167.654 40.4327C166.448 39.1277 165.521 37.5561 164.869 35.7204C164.217 33.8821 163.891 31.8573 163.891 29.6436C163.891 27.4298 164.217 25.4051 164.869 23.5668C165.521 21.7284 166.448 20.1568 167.654 18.8544C168.857 17.5495 170.298 16.5319 171.981 15.8018C173.66 15.0716 175.505 14.704 177.521 14.704ZM168.632 29.6436C168.632 31.5803 168.849 33.4186 169.284 35.1585C169.719 36.8985 170.322 38.4183 171.09 39.7233C171.862 41.0282 172.788 42.0639 173.875 42.8355C174.962 43.607 176.176 43.9928 177.519 43.9928C178.862 43.9928 180.086 43.607 181.193 42.8355C182.299 42.0639 183.248 41.0256 184.038 39.7233C184.827 38.4183 185.44 36.8985 185.875 35.1585C186.31 33.4186 186.527 31.5829 186.527 29.6436C186.527 27.7043 186.31 25.8711 185.875 24.1286C185.44 22.3887 184.827 20.8688 184.038 19.5639C183.248 18.2589 182.299 17.2233 181.193 16.4517C180.086 15.6801 178.862 15.2943 177.519 15.2943C176.176 15.2943 174.959 15.6801 173.875 16.4517C172.788 17.2233 171.859 18.2589 171.09 19.5639C170.322 20.8688 169.716 22.3913 169.284 24.1286C168.849 25.8685 168.632 27.7069 168.632 29.6436Z" fill="#01957D"/>
<path d="M196.128 29.7627C196.128 27.5489 196.426 25.5242 197.016 23.6859C197.608 21.8475 198.447 20.2578 199.534 18.914C200.621 17.5702 201.912 16.5319 203.416 15.8018C204.917 15.0716 206.576 14.704 208.392 14.704C209.893 14.704 211.257 14.9525 212.481 15.4445C213.705 15.939 214.753 16.6407 215.623 17.5495C216.49 18.4609 217.163 19.5458 217.636 20.8093C218.11 22.0754 218.348 23.458 218.348 24.9597H200.867C200.786 25.3947 200.748 25.8478 200.748 26.3242V27.8078C200.748 30.2986 201.084 32.4114 201.754 34.1513C202.425 35.8913 203.294 37.305 204.36 38.3898C205.426 39.4773 206.612 40.2566 207.916 40.7304C209.22 41.2043 210.522 41.4425 211.826 41.4425C213.405 41.4425 214.849 41.1369 216.153 40.5233C217.458 39.9097 218.405 39.0915 218.997 38.0636V38.3588C218.682 39.3478 218.198 40.2256 217.546 40.9971C216.893 41.7687 216.133 42.4108 215.266 42.9235C214.396 43.4387 213.439 43.8323 212.39 44.1093C211.342 44.3864 210.266 44.5236 209.161 44.5236C207.621 44.5236 206.068 44.2362 204.51 43.664C202.95 43.0918 201.547 42.2037 200.302 40.9971C199.058 39.7932 198.051 38.2604 197.28 36.4013C196.509 34.5449 196.126 32.3311 196.126 29.7627H196.128ZM200.988 24.3668H211.656C212.603 24.3668 213.167 23.893 213.345 22.9428C213.524 21.9951 213.405 20.9569 212.991 19.8306C212.577 18.7043 211.894 17.666 210.946 16.7184C209.999 15.7707 208.874 15.2943 207.569 15.2943C205.91 15.2943 204.487 16.1462 203.302 17.8447C202.117 19.5432 201.345 21.7181 200.991 24.3668H200.988Z" fill="#01957D"/>
<path d="M54.9047 23.1447C54.9331 23.5434 54.9461 23.9473 54.9461 24.3538V23.1447H54.9047ZM54.9176 25.361H54.9487V24.3538C54.9487 24.693 54.9383 25.0296 54.9176 25.361Z" fill="#01957D"/>
<path d="M57.1587 24.3538C57.1587 24.693 57.1509 25.027 57.1328 25.361C57.0008 27.9399 56.3642 30.3918 55.3161 32.6107C55.1996 32.8619 55.0754 33.113 54.946 33.359C54.6821 33.8613 54.3974 34.3507 54.092 34.8271C50.6346 40.2126 44.5945 43.7882 37.7366 43.7882C34.4655 43.7882 31.3807 42.9752 28.6738 41.5382C29.4398 41.1214 30.1722 40.6553 30.8709 40.1401C32.9748 41.0592 35.2962 41.5719 37.7392 41.5719C43.2953 41.5719 48.2408 38.9258 51.3903 34.8271C51.9285 34.128 52.4099 33.3901 52.8369 32.6107C54.0299 30.4358 54.7675 27.9761 54.9175 25.361H54.9486V23.1447H54.9072C54.7364 20.685 54.0454 18.3651 52.9456 16.2989C52.5341 15.5247 52.0631 14.7816 51.5429 14.0826C48.4038 9.86736 43.3859 7.13577 37.7392 7.13577C35.2341 7.13577 32.8506 7.67432 30.7001 8.64268C29.9962 8.13779 29.2561 7.6795 28.4849 7.27041C31.2384 5.77127 34.3904 4.91943 37.7366 4.91943C44.6799 4.91943 50.7821 8.58313 54.2188 14.0826C54.4776 14.4942 54.7183 14.9163 54.946 15.3487C55.1091 15.6594 55.2643 15.9752 55.4118 16.2963C56.3771 18.4039 56.9749 20.7134 57.1224 23.1421C57.1483 23.5408 57.1612 23.9447 57.1612 24.3513L57.1587 24.3538Z" fill="#01957D"/>
<path d="M33.1483 34.8244H35.8397C34.5302 36.8958 32.8403 38.6979 30.8709 40.1375C30.1722 40.6527 29.4398 41.1187 28.6738 41.5356C26.2257 42.869 23.4618 43.6872 20.5297 43.8529C20.1622 43.8762 19.7948 43.884 19.4221 43.884C19.0494 43.884 18.682 43.8736 18.3145 43.8529C11.8732 43.4904 6.26269 39.9717 3.00454 34.8244C2.55683 34.115 2.15053 33.3771 1.79599 32.6081C0.763427 30.3892 0.139746 27.9372 0.023291 25.361C0.00776367 25.0606 0 24.7577 0 24.4548C0 24.0146 0.0129394 23.5796 0.0439941 23.1446C0.204443 20.7134 0.817773 18.4038 1.79599 16.2988C2.15053 15.5324 2.55425 14.7919 3.00454 14.0825C6.26269 8.93262 11.8732 5.41651 18.3145 5.05402C18.682 5.03072 19.0494 5.02295 19.4221 5.02295C19.7948 5.02295 20.1622 5.03331 20.5297 5.05402C23.3893 5.21455 26.0859 5.99907 28.4849 7.27036C29.2561 7.67945 29.9936 8.13515 30.7001 8.64263C32.7445 10.1055 34.494 11.9542 35.8397 14.0825H33.1483C31.875 12.3969 30.2964 10.9522 28.4978 9.83365C27.7939 9.39349 27.0538 9.00252 26.2878 8.66852C24.5047 7.88659 22.5638 7.40241 20.5271 7.27295C20.1596 7.24965 19.7922 7.2367 19.4195 7.2367C19.0469 7.2367 18.6794 7.24965 18.3119 7.27295C13.1646 7.60178 8.62802 10.2039 5.69335 14.0825C5.16284 14.7816 4.68667 15.5221 4.26743 16.2988C3.15205 18.365 2.44814 20.6849 2.26181 23.1446C2.22817 23.577 2.21264 24.012 2.21264 24.4548C2.21264 24.7577 2.22041 25.0606 2.23594 25.361C2.37051 27.9735 3.09253 30.4306 4.26743 32.6107C4.68925 33.3849 5.16542 34.128 5.69335 34.827C8.62802 38.7082 13.1672 41.3103 18.3119 41.6366C18.6794 41.6599 19.0469 41.6728 19.4195 41.6728C19.7922 41.6728 20.1596 41.6599 20.5271 41.6366C22.6285 41.5045 24.6289 40.9893 26.4586 40.1659C27.2246 39.8216 27.957 39.4228 28.6583 38.9749C30.3896 37.8693 31.9112 36.4608 33.1457 34.827L33.1483 34.8244Z" fill="#01957D"/>
<path d="M36.6056 25.361H20.5582C20.7083 27.9735 21.4458 30.4358 22.6388 32.6107C23.0658 33.3875 23.5498 34.128 24.0854 34.8271C25.3457 36.4712 26.8959 37.8771 28.6582 38.9749C27.9569 39.4229 27.222 39.8216 26.4585 40.166C24.4452 38.7264 22.7216 36.9114 21.3811 34.8245C21.0783 34.3481 20.7911 33.8587 20.5271 33.3564C20.3977 33.1104 20.2735 32.8619 20.157 32.6081C19.1089 30.3892 18.4697 27.9373 18.3403 25.3584C18.3222 25.0244 18.3145 24.6904 18.3145 24.3512C18.3145 23.9447 18.3274 23.5408 18.3533 23.1421H36.5798C36.6134 23.5745 36.6289 24.0095 36.6289 24.4522C36.6289 24.7552 36.6212 25.0581 36.6056 25.3584V25.361Z" fill="#01957D"/>
<path d="M18.3403 25.3611H18.3145V24.3539C18.3145 24.6931 18.3222 25.0271 18.3403 25.3611Z" fill="#01957D"/>
<path d="M18.3533 23.1447C18.3274 23.5434 18.3145 23.9473 18.3145 24.3538V23.1447H18.3533Z" fill="#01957D"/>
<path d="M54.9045 23.1447H54.9459V24.3538C54.9459 23.9473 54.933 23.5434 54.9045 23.1447Z" fill="#01957D"/>
<path d="M54.9149 25.3611C54.9356 25.0297 54.946 24.6931 54.946 24.3539V25.3611H54.9149Z" fill="#01957D"/>
<path d="M57.1587 23.1447V24.3538C57.1587 23.9473 57.1458 23.5434 57.1199 23.1447H57.1587Z" fill="#01957D"/>
<path d="M57.1328 25.3611C57.1509 25.0271 57.1587 24.6931 57.1587 24.3539V25.3611H57.1328Z" fill="#01957D"/>
<path d="M57.1587 23.1447V24.3538C57.1587 23.9473 57.1458 23.5434 57.1199 23.1447H57.1587Z" fill="#01957D"/>
<path d="M57.1328 25.361C57.1509 25.0269 57.1587 24.6929 57.1587 24.3538V25.361H57.1328Z" fill="#01957D"/>
<path d="M18.3403 25.361H18.3145V24.3538C18.3145 24.6929 18.3222 25.0269 18.3403 25.361Z" fill="#01957D"/>
<path d="M18.3533 23.1447C18.3274 23.5434 18.3145 23.9473 18.3145 24.3538V23.1447H18.3533Z" fill="#01957D"/>
</g>
<defs>
<clipPath id="clip0_4_2">
<rect width="219" height="45" fill="white"/>
</clipPath>
</defs>
</svg>
