<svg width="76" height="52" viewBox="0 0 76 52" fill="none" xmlns="http://www.w3.org/2000/svg">
<path d="M15.6684 41.016C14.7292 39.998 13.3698 39.1754 13.0723 38.0669C12.4831 35.8617 11.0567 36.0658 9.46398 36.1038C7.57085 36.1504 5.67188 36.1359 3.77875 36.1038C1.72809 36.0717 0.342519 34.7765 0.330851 32.9447C0.319183 31.1157 1.68434 29.7564 3.73207 29.7039C6.20861 29.6426 8.69098 29.6601 11.1675 29.7009C12.0076 29.7155 12.5706 29.5872 13.014 28.7267C13.7257 27.3498 15.0355 26.8656 16.5581 26.8744C19.8135 26.889 23.0718 26.921 26.3272 26.8423C26.966 26.8277 27.7477 26.5127 28.2057 26.0693C31.3677 23.0327 35.0782 21.3992 39.4799 21.3875C42.8812 21.3817 46.2853 21.3875 49.6865 21.3817C50.4537 21.3817 51.2792 21.4196 51.3171 22.3939C51.358 23.4732 50.5062 23.5257 49.6748 23.5373C45.5473 23.6015 41.4139 23.5636 37.298 23.7999C34.8273 23.9428 32.6746 25.1446 30.5947 26.9006C33.6751 27.8953 35.9328 29.6309 36.8196 32.723C37.6918 35.7596 36.91 38.4461 34.7602 40.9372H40.5563C40.3375 40.5201 40.1479 40.1526 39.9525 39.7879C38.6194 37.3056 38.914 34.4177 40.7197 32.3029C42.4961 30.2231 45.3606 29.4968 48.0063 30.3806C48.5489 30.5615 49.2402 30.6723 49.7565 30.5002C52.7552 29.4938 55.5672 30.1327 57.437 32.3525C59.3126 34.5782 59.4876 37.5039 57.9066 40.2197C57.7899 40.4209 57.6703 40.6193 57.4778 40.9372H61.4975C61.4975 38.3557 61.5295 35.8412 61.4595 33.3297C61.4508 32.9913 60.9724 32.5596 60.6078 32.3613C59.8027 31.9208 58.8897 31.6758 58.0962 31.2178C55.681 29.8235 54.3391 27.697 54.307 24.9054C54.2458 19.6577 54.2691 14.4071 54.2954 9.15943C54.3041 7.23712 55.4563 6.05865 57.3903 6.04407C62.2005 6.00615 67.0135 6.00906 71.8266 6.04115C73.851 6.05574 74.9857 7.2167 74.9944 9.23527C75.0148 14.4363 75.0557 19.6373 74.9798 24.8354C74.9332 28.0616 73.3434 30.5119 70.3214 31.5824C68.1949 32.335 67.4977 33.4464 67.7428 35.602C67.9382 37.3202 67.7836 39.0791 67.7836 41.0189C69.1517 41.0189 70.3972 41.0393 71.6428 41.0131C72.865 40.9897 73.8393 41.4127 74.4227 42.5153C75.0294 43.6617 74.9186 44.7789 74.0931 45.7765C73.5622 46.4183 73.3434 46.9754 74.0581 47.6376C74.2943 47.8564 74.4198 48.2093 74.5569 48.5185C75.5982 50.9017 75.0703 51.7097 72.4741 51.7097C54.4908 51.7097 36.5075 51.7126 18.5242 51.6981C17.5732 51.6981 16.1468 52.0568 16.1935 50.5196C16.2373 49.1253 17.5995 49.487 18.5125 49.487C29.9822 49.4724 41.4547 49.4695 52.9244 49.4899C53.8753 49.4899 54.45 49.347 54.8846 48.3056C55.681 46.4037 57.3145 45.4732 59.3826 45.3769C60.0098 45.3477 60.6399 45.3711 61.3866 45.3711V43.3729H2.55069C2.67029 43.8309 2.71988 44.1955 2.86281 44.5135C3.00282 44.8169 3.2391 45.0765 3.43746 45.3536C6.88827 50.0762 5.6923 49.4374 11.3192 49.4782C11.5613 49.4782 11.8763 49.3907 12.0339 49.5103C12.451 49.8224 12.7981 50.225 13.1715 50.5925C12.7952 50.9601 12.4306 51.6251 12.0397 51.6426C10.2982 51.7097 8.53346 51.7185 6.81243 51.488C5.9665 51.3743 4.98639 50.8725 4.43507 50.2308C3.0495 48.6148 1.74268 46.8996 0.651721 45.0765C-0.421735 43.2883 1.07469 41.0656 3.28577 41.0364C6.88244 40.9868 10.4791 41.0218 14.0758 41.0218C14.6096 41.0218 15.1405 41.0218 15.6684 41.0218V41.016ZM72.3079 49.3907C72.3866 49.1924 72.4625 48.994 72.5412 48.7956C71.6282 48.3873 70.7502 47.8535 69.7963 47.6055C69.0204 47.4072 68.154 47.5151 67.3285 47.553C66.0859 47.6084 65.5988 47.0834 65.6192 45.8203C65.6717 42.3228 65.8613 38.8049 65.5696 35.3337C65.3129 32.2679 66.1296 30.471 69.2713 29.6426C71.6836 29.0067 72.7921 27.0261 72.8008 24.5233C72.8154 19.5673 72.795 14.6113 72.8183 9.65823C72.8242 8.70729 72.5529 8.24349 71.4969 8.25224C66.9318 8.29016 62.3638 8.28433 57.7987 8.25516C56.874 8.24932 56.4802 8.57019 56.486 9.51822C56.5094 14.6201 56.4685 19.719 56.5181 24.8208C56.5415 27.1398 57.7433 28.7471 59.8814 29.6484C60.8207 30.0452 61.8154 30.3456 62.6788 30.8648C63.1281 31.1361 63.6123 31.7866 63.621 32.2737C63.691 36.8884 63.6531 41.5031 63.6706 46.1178C63.6735 47.1096 63.2068 47.5355 62.2588 47.5413C61.2874 47.5472 60.3131 47.5209 59.3447 47.5909C58.2275 47.6697 57.3553 48.1597 56.8273 49.3878H72.3108L72.3079 49.3907ZM22.9639 29.0534C20.8753 29.0534 18.7867 29.0096 16.7011 29.0825C16.1264 29.103 15.438 29.3392 15.0267 29.7185C14.2741 30.4127 14.4666 36.5355 15.158 37.3085C15.2542 37.4164 15.3709 37.5068 15.4759 37.606C17.8883 39.9367 20.6857 41.2494 24.1277 41.0335C25.7233 40.9343 27.3306 41.0364 28.932 41.0102C32.3508 40.9518 35.0023 38.3353 35.0023 35.042C35.0023 31.7574 32.3449 29.1175 28.932 29.0592C26.9427 29.0242 24.9503 29.0534 22.9609 29.0534H22.9639ZM52.3877 41.0102C54.8292 41.0102 56.839 38.9945 56.8128 36.5705C56.7865 34.1873 54.8438 32.2446 52.4548 32.2183C49.9899 32.1891 47.9771 34.1377 47.9509 36.5763C47.9246 38.9887 49.949 41.0131 52.3877 41.0131V41.0102ZM46.7608 40.7826C46.4224 39.2629 45.8565 37.8656 45.874 36.4771C45.8886 35.1032 46.4924 33.7381 46.8366 32.37C44.6255 31.9937 43.0066 32.6296 41.9769 34.3098C41.0259 35.8558 41.1572 37.9415 42.2919 39.3533C43.4529 40.7972 45.1272 41.296 46.7608 40.7826ZM12.3314 31.9412C9.37939 31.9412 6.48864 31.9091 3.60081 31.985C3.25077 31.9937 2.91823 32.6034 2.57986 32.933C2.92115 33.2714 3.25369 33.8956 3.60373 33.9043C6.48864 33.9831 9.37939 33.9481 12.3314 33.9481V31.9383V31.9412ZM67.8361 45.2311C68.9679 45.3419 70.1259 45.6307 71.2227 45.4819C71.7361 45.4148 72.1562 44.5193 72.5529 43.9505C72.5966 43.8863 72.2087 43.3233 72.0103 43.3146C70.6335 43.2563 69.2508 43.2825 67.839 43.2825V45.2281L67.8361 45.2311Z" fill="#C2B791"/>
<path d="M26.6364 11.0816C26.4876 9.08637 27.1644 7.1874 28.652 5.44887C29.2821 4.71087 29.4338 3.5324 29.7022 2.52604C29.8363 2.02431 29.6088 1.40591 29.8013 0.950855C29.9676 0.554142 30.4722 0.119509 30.8748 0.0670033C31.1577 0.0319993 31.7703 0.589146 31.8024 0.924602C31.9978 2.92566 32.0708 5.01132 30.5918 6.58067C29.1625 8.09459 28.7571 9.7777 28.8475 11.7613C28.8912 12.7122 29.3434 14.2553 27.6894 14.2057C26.1872 14.159 26.7618 12.6947 26.6364 11.7671C26.616 11.6242 26.6364 11.4754 26.6364 11.0845V11.0816Z" fill="#C2B791"/>
<path d="M33.5584 10.9242C33.363 8.99603 34.0543 7.19624 35.4661 5.53647C36.0699 4.82472 36.2566 3.72501 36.5221 2.77115C36.6592 2.27526 36.4171 1.65686 36.6008 1.19014C36.7817 0.72925 37.2776 0.390878 37.6335 0C38.0156 0.364625 38.6865 0.70008 38.7303 1.10263C38.9403 3.06285 38.8674 5.08725 37.4468 6.60701C36.0291 8.12385 35.542 9.81571 35.7024 11.7964C35.7374 12.231 35.8308 12.7298 35.6645 13.0915C35.4574 13.5436 35.0111 13.8878 34.6698 14.2787C34.2993 13.8674 33.7597 13.5115 33.6022 13.0302C33.4155 12.4585 33.5584 11.7818 33.5584 10.9242Z" fill="#C2B791"/>
<path d="M22.328 7.15833C22.328 9.05147 22.4038 10.9475 22.2813 12.8319C22.2492 13.3336 21.6162 13.7974 21.2603 14.2817C20.8928 13.8149 20.216 13.357 20.2073 12.8844C20.1198 9.05438 20.1198 5.21853 20.2073 1.38851C20.219 0.918868 20.9103 0.463816 21.2866 0.00292969C21.6337 0.449231 22.255 0.87803 22.2813 1.34183C22.395 3.27581 22.328 5.22144 22.3309 7.16125L22.328 7.15833Z" fill="#C2B791"/>
<path d="M42.9103 2.88787C42.9103 2.25779 42.779 1.5898 42.954 1.01223C43.0766 0.606771 43.6075 0.067126 43.9604 0.064209C44.3105 0.064209 44.9318 0.633024 44.9668 0.994732C45.0893 2.28988 45.0893 3.61128 44.9668 4.90935C44.9318 5.27981 44.3163 5.85737 43.9692 5.85737C43.6162 5.85737 43.0678 5.31189 42.957 4.90935C42.7849 4.27636 42.9103 3.56461 42.9103 2.88787Z" fill="#C2B791"/>
<path d="M58.668 21.3321C58.668 20.3112 58.6913 19.2902 58.6621 18.2722C58.633 17.2541 59.0501 16.7291 60.1119 16.7349C63.1222 16.7495 66.1355 16.7524 69.1458 16.7349C70.1872 16.7291 70.651 17.19 70.6393 18.2313C70.616 20.3695 70.6539 22.5047 70.616 24.6429C70.6072 25.1592 70.4818 25.7164 70.2514 26.1773C69.3821 27.9012 65.0183 29.4385 63.2243 28.6975C58.3646 26.6936 58.6271 26.9386 58.6709 21.3321H58.668ZM60.8995 18.9752C60.8995 20.9441 60.8849 22.8256 60.917 24.7071C60.9199 24.9579 61.1095 25.2671 61.3078 25.4422C62.9151 26.8627 66.4214 26.8598 67.9994 25.4422C68.1949 25.2642 68.3816 24.955 68.3874 24.7042C68.4195 22.8227 68.4049 20.9412 68.4049 18.9752H60.8995Z" fill="#C2B791"/>
</svg>
