<svg width="70" height="76" viewBox="0 0 70 76" fill="none" xmlns="http://www.w3.org/2000/svg">
<path d="M63.684 73.1456C63.2086 68.7293 62.876 64.6076 62.2518 60.5325C62.0797 59.4066 61.1433 58.3185 60.3499 57.3909C59.714 56.65 58.9002 56.297 57.8559 57.2421C57.2841 57.7585 56.1144 57.9131 55.2831 57.7876C52.8882 57.4201 50.5167 56.8746 48.1627 56.2854C47.5034 56.1191 46.605 55.6874 46.3979 55.1507C45.5782 53.0475 43.7113 53.0417 42.0866 52.9921C37.326 52.8491 32.5596 52.9104 27.7962 52.9658C26.7927 52.9775 25.7776 53.2604 24.8033 53.5405C24.4708 53.6367 24.2783 54.1414 23.9691 54.3922C23.1406 55.069 22.3793 56.0083 21.4225 56.3087C19.3019 56.9767 17.0791 57.3297 14.8943 57.7847C13.7042 58.0327 12.6161 57.881 11.5981 57.0817C11.2685 56.8221 10.5013 56.7783 10.1162 56.9825C8.55564 57.8022 7.6893 59.1703 7.49094 60.9351C7.20507 63.4933 6.91629 66.0515 6.65376 68.6126C6.56917 69.4527 6.4204 70.2607 5.34694 70.1236C4.36683 69.9982 4.39017 69.2194 4.47476 68.4376C4.73729 66.0223 4.9619 63.6041 5.22151 61.1888C5.55113 58.0881 7.04464 55.8216 9.97622 54.5702C10.2913 54.436 10.6413 54.1414 10.7609 53.838C11.3005 52.4699 12.3273 51.8194 13.7158 51.5452C15.9065 51.1135 18.0738 50.5505 20.2762 50.2093C21.0725 50.0867 22.0468 50.2413 22.7585 50.6147C24.2608 51.3994 24.2112 51.4927 26.1481 50.8597C26.0489 49.1737 26.2385 47.5869 27.7903 46.3617C28.2221 46.0204 27.9712 44.8186 28.0441 43.8969C22.0905 42.8905 19.1677 39.3755 19.2552 33.4715C14.235 32.5526 12.2952 30.7704 12.409 27.2554C12.514 23.9446 14.6901 22.104 19.229 21.5906C19.2494 21.1005 19.2931 20.5842 19.2931 20.0679C19.299 15.2082 19.2844 10.3455 19.3019 5.4858C19.3106 2.18375 20.8362 0.666911 24.112 0.663994C31.3549 0.661077 38.5978 0.722334 45.8408 0.634824C48.9415 0.596903 51.0914 2.53088 50.4788 6.59717C50.4204 6.9793 49.7116 7.61521 49.4783 7.54812C49.0378 7.41977 48.5477 6.92096 48.3931 6.46883C48.0518 5.45663 48.2414 3.92812 47.591 3.44098C46.7625 2.81966 45.3186 2.88967 44.1372 2.88091C38.9362 2.83133 33.7352 2.8605 28.5342 2.8605C28.0091 2.8605 27.4841 2.8605 26.6673 2.8605C27.0699 3.30388 27.2507 3.55766 27.4841 3.75018C29.9081 5.7775 32.3117 7.82815 34.7912 9.78546C35.3425 10.2201 36.1534 10.5264 36.8506 10.541C40.5931 10.6139 44.3356 10.576 48.0781 10.576C50.5313 10.576 50.5605 10.6051 50.5634 13.1371C50.5634 15.9432 50.5634 18.7494 50.5634 21.5235C55.5281 22.3694 57.5088 24.1575 57.4533 27.6171C57.4008 30.9921 55.2772 32.8298 50.6246 33.4219C50.6655 39.2734 47.8622 42.8876 41.9261 43.8706C41.8415 45.1716 41.614 46.3267 42.8771 47.3214C43.4284 47.7561 43.4313 48.882 43.688 49.6929C43.8339 50.1567 43.9068 50.9531 44.1576 51.0144C44.8898 51.1952 45.9224 51.3936 46.4212 51.0231C47.5939 50.1538 48.7257 49.9205 50.0967 50.2443C52.2698 50.7577 54.4751 51.1339 56.6278 51.7203C57.3629 51.9186 58.2526 52.4203 58.588 53.0417C59.1335 54.0597 59.9094 54.5498 60.8516 55.0748C63.3573 56.4662 64.4191 58.7648 64.6787 61.5564C65.0288 65.3689 65.4722 69.1727 65.8922 73.1486C66.7031 73.1486 67.4178 73.1486 68.1325 73.1486C68.9346 73.1515 69.8447 73.1544 69.8623 74.222C69.8798 75.2721 69.0251 75.3742 68.1879 75.345C67.9458 75.3363 67.7008 75.345 67.4586 75.345C45.7795 75.345 24.1003 75.345 2.42119 75.345C2.32493 75.345 2.22575 75.348 2.12949 75.345C1.24564 75.3042 0.0117492 75.6076 8.11903e-05 74.2599C-0.0115868 72.9006 1.23689 73.1573 2.11491 73.1573C21.898 73.1456 41.6811 73.1486 61.4642 73.1486H63.6753L63.684 73.1456ZM21.5071 18.1981C21.5071 23.6937 21.4925 29.0289 21.51 34.3641C21.5246 38.6492 24.3395 41.5078 28.6013 41.537C32.7755 41.5691 36.9526 41.5633 41.1269 41.537C45.4965 41.5137 48.329 38.6871 48.3435 34.3408C48.361 29.3877 48.3494 24.4346 48.3435 19.4845C48.3435 19.0644 48.291 18.6473 48.2619 18.1952H21.5071V18.1981ZM48.3027 12.8716H21.6121V15.7974H48.3027V12.8716ZM21.5159 10.4972H32.1396C29.2372 8.07318 26.5885 5.84167 23.9049 3.64809C23.5403 3.35055 22.7731 2.98301 22.5835 3.13469C22.108 3.51682 21.6005 4.15856 21.5626 4.72738C21.4371 6.60301 21.5159 8.49322 21.5159 10.4972ZM19.1998 30.9395V24.0554C17.4379 23.7491 16.0436 24.1663 15.1101 25.6452C14.3459 26.8528 14.3401 28.1276 15.1014 29.341C16.029 30.8229 17.4175 31.2633 19.1998 30.9425V30.9395ZM50.6188 30.8929C52.7745 31.1817 54.0375 30.6653 54.8309 29.2302C55.5544 27.9175 55.4581 26.6282 54.6063 25.4147C53.7137 24.1459 52.3573 23.7375 50.6217 24.1925V30.8929H50.6188ZM30.2931 46.2159C31.4687 46.2159 32.5859 45.9329 33.4639 46.2713C35.6079 47.1026 37.5215 45.5858 39.5546 46.1896V43.8969H30.2902V46.2159H30.2931ZM48.7607 52.2074C48.5302 52.432 47.9964 52.7179 47.9177 53.1C47.8593 53.3888 48.3231 54.0305 48.6557 54.1122C51.0476 54.7073 53.46 55.2323 55.884 55.6816C56.1961 55.7399 56.8437 55.279 56.9166 54.9611C56.9895 54.6548 56.587 53.9605 56.2807 53.8847C53.8888 53.2867 51.4706 52.7937 48.7607 52.2045V52.2074ZM13.7187 55.8011C16.3995 55.209 18.8585 54.6956 21.2913 54.083C21.583 54.0101 21.9709 53.3129 21.8922 53.0212C21.8047 52.7062 21.1746 52.2745 20.8596 52.3328C18.4355 52.7704 16.0261 53.2809 13.6341 53.8643C13.322 53.9401 12.9399 54.5731 12.9632 54.9231C12.9866 55.2586 13.4941 55.562 13.7187 55.8041V55.8011ZM33.6652 50.7431C33.9627 48.5611 33.8169 48.3803 31.8625 48.3657C31.282 48.3628 30.6986 48.357 30.1181 48.3657C28.3154 48.392 27.98 48.9316 28.645 50.7402H33.6652V50.7431ZM41.3573 50.7226C41.6753 48.5787 41.5061 48.3774 39.5196 48.3657C39.0354 48.3628 38.5512 48.3657 38.064 48.3657C36.0221 48.3774 35.8179 48.6341 36.2526 50.7226H41.3544H41.3573Z" fill="#C2B791"/>
<path d="M34.8437 58.8057C35.395 59.5057 35.9697 59.9287 35.9142 60.235C35.8355 60.658 35.3308 61.1889 34.9137 61.2968C34.6512 61.3639 33.9453 60.7484 33.9248 60.41C33.8986 59.9987 34.3857 59.5553 34.8437 58.8057Z" fill="#C2B791"/>
<path d="M34.9457 54.363C35.4562 55.206 35.9375 55.6523 35.9142 56.0666C35.8937 56.4049 35.2607 56.9562 34.9078 56.9504C34.5519 56.9446 33.9335 56.3758 33.9248 56.0374C33.9131 55.6203 34.409 55.1885 34.9486 54.3601L34.9457 54.363Z" fill="#C2B791"/>
<path d="M34.9895 66.2762C34.4411 65.4565 33.9394 65.0336 33.9452 64.6194C33.9511 64.281 34.5549 63.6976 34.9079 63.6888C35.2637 63.6801 35.9084 64.2168 35.9346 64.5552C35.9667 64.9694 35.4913 65.4244 34.9895 66.2791V66.2762Z" fill="#C2B791"/>
<path d="M34.7707 31.8789C33.2627 31.5726 31.7721 31.3684 30.3573 30.9192C29.911 30.7763 29.6806 29.9683 29.351 29.4666C29.9052 29.277 30.544 28.8073 31.0049 28.9415C33.601 29.7087 36.1621 29.7262 38.7233 28.9036C39.505 28.6527 40.2168 28.571 40.491 29.5045C40.7652 30.435 40.1001 30.8375 39.33 31.0009C37.8219 31.3218 36.3051 31.5872 34.7678 31.8789H34.7707Z" fill="#C2B791"/>
<path d="M33.814 24.1108C33.9569 23.3203 33.3502 21.7685 34.9924 21.8181C36.4597 21.8618 35.9609 23.3232 36.0426 24.2654C36.0805 24.6971 36.1797 25.2047 36.0105 25.5577C35.7713 26.0506 35.3046 26.4357 34.9341 26.8674C34.5607 26.4415 34.0882 26.0623 33.8461 25.5722C33.6739 25.2193 33.814 24.7146 33.814 24.1108Z" fill="#C2B791"/>
</svg>
