<svg width="43" height="43" viewBox="0 0 43 43" fill="none" xmlns="http://www.w3.org/2000/svg">
<path d="M42.634 21.4983C42.6204 33.3468 33.1512 42.9539 21.4919 42.9508C9.80242 42.9478 0.319683 33.2859 0.357289 21.4145C0.394895 9.56294 9.87763 -0.0258345 21.537 5.22917e-05C33.1994 0.0259391 42.6475 9.65278 42.634 21.4983ZM40.692 21.5059C40.698 10.7263 32.1554 2.02074 21.6002 1.95983C10.9411 1.90045 2.27369 10.7415 2.29325 21.445C2.3128 32.2245 10.8358 40.9301 21.3896 40.991C32.0486 41.0519 40.7386 32.2108 40.692 21.5074V21.5059Z" fill="white"/>
<path d="M31.468 14.3184C31.0062 14.9123 30.5459 15.5062 30.0706 16.1183C30.6452 15.9736 31.2484 15.8229 31.8501 15.6706C31.8787 15.7072 31.9057 15.7452 31.9343 15.7818C31.4891 16.2508 31.0784 16.7579 30.5895 17.1751C30.2451 17.4675 30.1352 17.7629 30.1277 18.206C30.042 23.8448 25.9459 28.5364 20.4224 29.1988C17.8922 29.5033 15.4343 29.115 13.1749 27.6806C14.1346 27.5329 15.0763 27.4857 15.9563 27.2237C16.8468 26.9588 17.6756 26.4837 18.5135 26.001C16.9009 25.6233 15.6825 24.8696 15.0477 23.2067C15.5396 23.1824 15.9728 23.1595 16.4045 23.1382C14.7408 22.3586 13.745 21.1282 13.6006 19.1988C14.1316 19.3298 14.5739 19.4394 15.0161 19.5506C13.6743 18.005 13.19 16.3924 14.1722 14.3869C16.3624 16.8401 18.9753 18.2867 22.2274 18.4481C22.1237 15.9523 23.136 14.3809 25.1983 13.822C26.3792 13.5022 27.5179 13.7139 28.4595 14.4768C28.9785 14.8971 29.4072 14.9092 29.9487 14.6763C30.3834 14.489 30.8287 14.3291 31.2694 14.1585L31.468 14.3199V14.3184Z" fill="white"/>
</svg>
