<svg width="34" height="27" viewBox="0 0 34 27" fill="none" xmlns="http://www.w3.org/2000/svg">
<path d="M30.5424 0.153809C31.144 1.02048 31.6812 1.79762 32.265 2.63923C28.0766 5.01362 25.0039 8.16874 24.2805 13.2596C26.0926 12.5272 27.8116 12.5666 29.5163 13.1539C32.3581 14.1352 34.1416 16.7943 33.9911 19.7775C33.8425 22.7142 31.7475 25.4091 29.04 25.9534C26.166 26.5318 23.6179 25.8281 21.7127 23.5182C18.5629 19.7005 18.4394 15.3618 20.0008 10.9389C21.813 5.8033 25.6772 2.54253 30.5424 0.153809Z" fill="#C2B791"/>
<path d="M11.3395 0C12.0361 1.00813 12.5697 1.78527 13.1624 2.64299C8.93466 5.02814 5.86549 8.22444 5.18146 13.2347C7.90145 12.2767 10.3779 12.6008 12.5571 14.3825C15.0569 16.4238 15.5923 19.8923 13.9646 22.8128C12.3655 25.6832 9.22295 26.8937 5.97651 25.7728C2.3791 24.5319 0.717378 21.6704 0.187347 18.15C-0.734837 12.0206 1.81325 7.21631 6.38119 3.37537C7.87101 2.12371 9.60794 1.16571 11.3395 0Z" fill="#C2B791"/>
</svg>
