<svg width="70" height="75" viewBox="0 0 70 75" fill="none" xmlns="http://www.w3.org/2000/svg">
<path d="M60.8952 67.6628V29.5084C59.3958 29.5638 57.9373 29.2138 57.4677 27.694C57.0651 26.3901 57.1264 24.9433 56.9601 23.3623C56.0646 23.3623 55.1078 23.3856 54.154 23.3564C52.3308 23.301 51.0444 22.07 51.0182 20.3928C50.9919 18.7126 52.2287 17.4203 54.0519 17.3066C55.0116 17.2453 55.98 17.2949 57.0389 17.2949V13.5028H2.27802V15.2326C2.27802 34.1464 2.27802 53.0603 2.27802 71.9741C2.27802 72.3621 2.27219 72.7529 2.27802 73.1409C2.28969 73.9518 2.05341 74.7569 1.13455 74.6052C0.705756 74.5352 0.346964 73.7272 0.0698493 73.1934C-0.0701668 72.925 0.0435963 72.5254 0.0435963 72.1841C0.0435963 50.1112 0.0435963 28.0353 0.0435963 5.96235C0.0435963 1.62185 1.68003 0 6.05262 0C23.2163 0 40.3799 0 57.5435 0C61.4669 0 63.1996 1.7502 63.2054 5.72316C63.2113 9.50651 63.2054 13.2899 63.2054 17.2861C64.1243 17.2861 64.9323 17.2745 65.7403 17.2861C67.893 17.3212 69.2845 18.5113 69.2961 20.3169C69.3107 22.1255 67.9105 23.336 65.7753 23.3593C65.0023 23.3681 64.2293 23.3593 63.2054 23.3593C63.2054 24.0419 63.2054 24.6457 63.2054 25.2525C63.2054 40.7622 63.2054 56.2719 63.2054 71.7816C63.2054 72.1229 63.2054 72.4612 63.2054 72.8025C63.1967 73.6455 63.2375 74.6373 62.0795 74.6344C60.9272 74.6315 60.9593 73.6485 60.9622 72.7996C60.9652 71.8807 60.9622 70.959 60.9622 69.8155H59.0341C41.8705 69.8155 24.7068 69.8213 7.54321 69.798C6.66519 69.798 5.2942 70.2443 5.25628 68.7654C5.22127 67.2573 6.59226 67.6715 7.47903 67.6715C24.6427 67.654 41.8063 67.6569 58.9699 67.6569C59.5504 67.6569 60.1309 67.6569 60.8893 67.6569L60.8952 67.6628ZM60.9652 11.1079C60.9652 9.24398 60.9652 7.5492 60.9652 5.85442C60.9652 2.84699 60.3088 2.1965 57.2752 2.1965C40.164 2.1965 23.0529 2.1965 5.94177 2.1965C5.40796 2.1965 4.75455 2.05357 4.36659 2.30151C3.60817 2.78865 2.49388 3.45373 2.42095 4.13922C2.17592 6.42615 2.32761 8.75684 2.32761 11.105H60.9681L60.9652 11.1079ZM60.0872 12.8873C59.6934 13.7478 59.3608 14.162 59.3287 14.5996C59.2471 15.7576 59.2908 16.9244 59.2937 18.0883C59.2937 19.048 58.827 19.5206 57.8702 19.5177C56.8026 19.5177 55.7262 19.4331 54.6732 19.5585C54.1831 19.6168 53.7398 20.0836 53.276 20.3636C53.7573 20.6407 54.2152 21.0695 54.7286 21.157C55.5308 21.2912 56.3709 21.192 57.1964 21.1949C59.1625 21.2037 59.285 21.3233 59.2966 23.2281C59.3025 24.1499 59.2062 25.0862 59.3433 25.9876C59.4104 26.4309 59.9063 26.8102 60.2097 27.2156C60.4634 26.816 60.8922 26.4368 60.9331 26.0167C61.0381 24.9608 61.0002 23.8844 60.9622 22.8197C60.9214 21.6325 61.4727 21.1453 62.6337 21.1862C63.6984 21.2241 64.7777 21.2795 65.8278 21.1483C66.2683 21.0928 66.6504 20.5765 67.0559 20.2702C66.6562 20.0194 66.2741 19.6052 65.8511 19.5556C64.8944 19.4476 63.9143 19.5264 62.9458 19.5177C61.2539 19.5031 60.9885 19.2464 60.971 17.5983C60.9593 16.5306 61.0177 15.4601 60.9331 14.3983C60.9039 14.022 60.5451 13.672 60.0872 12.8815V12.8873Z" fill="#C2B791"/>
<path d="M56.4468 40.733C56.4643 53.9208 46.2606 64.6874 32.9095 65.5771C20.2847 66.4172 8.61672 56.7065 7.00945 44.0234C5.28259 30.4097 14.687 18.1204 28.3036 16.1806C29.1524 16.061 29.9575 16.0435 30.0742 17.1082C30.1821 18.0796 29.4091 18.2546 28.639 18.3742C18.7183 19.8939 11.3354 26.8656 9.39848 36.5296C7.00362 48.4718 14.8445 60.2477 26.9734 62.9226C38.7873 65.5275 50.9395 57.8033 53.6406 45.9719C56.6393 32.8454 48.0283 20.3227 34.6597 18.3771C33.84 18.2575 33.0145 18.1029 33.1691 17.0265C33.3091 16.061 34.0705 16.061 34.861 16.1631C47.1707 17.7879 56.4293 28.3212 56.4468 40.7301V40.733Z" fill="#C2B791"/>
<path d="M31.6435 61.6246C20.101 61.6304 10.7607 52.3165 10.7549 40.7943C10.7491 29.2984 20.1301 19.8911 31.6085 19.8823C43.0957 19.8736 52.4884 29.2634 52.4913 40.7564C52.4913 52.296 43.1832 61.6159 31.6435 61.6246ZM12.9514 40.8089C12.9747 51.0738 21.3378 59.4544 31.5823 59.4777C41.8764 59.501 50.3415 51.033 50.3094 40.7476C50.2773 30.3952 41.8939 22.0876 31.521 22.1284C21.2298 22.1693 12.9281 30.5235 12.9514 40.8089Z" fill="#C2B791"/>
<path d="M21.5478 8.24931C17.5632 8.24931 13.5785 8.24931 9.59391 8.24931C8.78299 8.24931 7.88163 8.24055 7.8933 7.16418C7.90789 6.10531 8.79757 6.09364 9.61433 6.09364C17.6303 6.09948 25.6491 6.09948 33.665 6.09364C34.4701 6.09364 35.3919 6.05864 35.4298 7.11168C35.4735 8.29014 34.4905 8.24931 33.6417 8.24931C29.6075 8.24931 25.5762 8.24931 21.5419 8.24931H21.5478Z" fill="#C2B791"/>
<path d="M49.548 8.61978C49.0609 7.98971 48.4892 7.55508 48.5504 7.25462C48.6409 6.82874 49.198 6.49912 49.5539 6.12866C49.9068 6.50204 50.4581 6.83458 50.5427 7.26046C50.604 7.56383 50.0323 7.99263 49.548 8.61978Z" fill="#C2B791"/>
<path d="M54.5915 5.95361C54.8686 6.36783 55.3616 6.78204 55.3587 7.19042C55.3557 7.53171 54.7811 8.12094 54.4369 8.13845C54.0898 8.15595 53.4509 7.63089 53.4159 7.29543C53.3722 6.88122 53.8214 6.41742 54.0577 5.97403C54.2356 5.9682 54.4136 5.95945 54.5915 5.95361Z" fill="#C2B791"/>
<path d="M46.2985 7.17588C45.6363 7.6601 45.2075 8.20267 44.8983 8.14141C44.4666 8.05682 44.1253 7.52009 43.7461 7.17588C44.1253 6.82876 44.4637 6.2862 44.8954 6.19577C45.1988 6.13159 45.6305 6.68582 46.2956 7.17588H46.2985Z" fill="#C2B791"/>
<path d="M39.6039 40.3975C39.6039 44.3122 39.6039 48.0401 39.6039 51.7709C39.6039 53.9062 39.496 54.0141 37.3928 54.017C33.4082 54.017 29.4265 53.9849 25.4448 54.0374C24.1205 54.0549 23.6158 53.5386 23.6304 52.2347C23.6683 48.358 23.645 44.4784 23.645 40.4442C23.2891 40.6105 23.0528 40.6659 22.8866 40.8059C21.7839 41.7394 21.0197 41.3981 20.2963 40.2721C19.3016 38.7203 18.2194 37.2209 17.143 35.7245C16.5479 34.8961 16.615 34.2397 17.4405 33.6097C19.4853 32.0491 21.4106 30.3018 23.5779 28.9366C24.8264 28.149 26.4278 27.6969 27.9155 27.5627C30.3745 27.344 32.8656 27.4956 35.3422 27.5044C37.0982 27.5102 38.6734 28.0295 40.0619 29.135C41.9229 30.6168 43.7927 32.0928 45.6975 33.5163C46.6455 34.2252 46.7214 34.9165 46.0301 35.847C45.1054 37.0926 44.2478 38.3906 43.361 39.6654C42.4081 41.0325 41.1558 41.2785 39.6039 40.4034V40.3975ZM37.3607 51.7972C37.3607 50.2716 37.3607 48.9152 37.3607 47.5588C37.3607 44.5922 37.3286 41.6285 37.3928 38.6619C37.4045 38.1631 37.7108 37.4922 38.0987 37.2413C38.3904 37.0547 39.073 37.3434 39.5106 37.5651C40.1115 37.8685 40.6482 38.3031 41.3133 38.7494C42.1884 37.4922 43.0372 36.2729 43.9677 34.9369C41.8967 33.353 39.9714 31.8041 37.9529 30.3893C37.3607 29.9751 36.5002 29.7884 35.7564 29.768C32.9881 29.698 30.2141 29.7096 27.4458 29.7651C26.7924 29.7767 26.0282 29.9138 25.5119 30.2755C23.4204 31.7457 21.4076 33.3238 19.2782 34.9282C20.2321 36.2991 21.0751 37.5097 21.9502 38.764C22.5336 38.3615 22.942 37.991 23.4175 37.7781C23.9921 37.5214 24.7855 37.0897 25.191 37.2997C25.6052 37.5126 25.8473 38.4111 25.8561 39.012C25.9144 42.7545 25.8823 46.497 25.8882 50.2424C25.8882 50.7529 25.9378 51.2634 25.9669 51.8001H37.3607V51.7972Z" fill="#C2B791"/>
<path d="M32.8277 34.8494C33.7553 35.3278 35.5026 34.3506 35.5085 36.095C35.5172 37.851 33.7058 36.7805 32.854 37.3581C32.2968 38.1602 33.4024 39.9629 31.6347 39.9688C29.8466 39.9746 30.9288 38.1894 30.4008 37.3522C29.5665 36.7542 27.6413 37.8919 27.7434 35.9842C27.8309 34.3856 29.4703 35.2928 30.3833 34.8786C30.9579 34.056 29.8407 32.1512 31.6755 32.1921C33.2857 32.2271 32.4194 33.881 32.8277 34.8494Z" fill="#C2B791"/>
</svg>
