<svg width="74" height="74" viewBox="0 0 74 74" fill="none" xmlns="http://www.w3.org/2000/svg">
<path d="M11.0548 43.4328C9.47286 43.4328 8.00491 43.4755 6.53696 43.4242C3.73788 43.3245 1.56874 41.4831 0.981564 38.7753C0.622415 37.1135 1.04142 36.5719 2.7146 36.5491C3.23052 36.5434 3.74644 36.5491 4.20535 36.5491C4.6272 34.0921 4.88659 31.7291 5.45667 29.4431C7.15264 22.6506 10.7641 17.0126 16.0772 12.4634C16.3993 12.1869 16.7413 11.8078 17.1119 11.7565C17.5052 11.7023 18.0639 11.8733 18.3204 12.1555C18.5086 12.3636 18.4402 12.9679 18.2777 13.29C18.0981 13.6463 17.6877 13.8914 17.3684 14.1736C11.0634 19.6691 7.51179 26.587 6.64813 34.893C6.59967 35.3633 6.59967 35.8394 6.57402 36.4322H68.1623C67.806 28.7647 65.0211 22.1518 59.6852 16.3627C59.3745 17.0838 59.2491 17.7394 58.8672 18.1641C58.4282 18.6487 57.7612 19.2102 57.194 19.2102C56.6267 19.2102 56.0253 18.5974 55.5122 18.1698C55.2842 17.9817 55.1902 17.5912 55.1132 17.272C54.7255 15.6729 53.7678 14.7408 52.1887 14.1593C49.9968 13.3527 49.84 12.1299 51.5958 10.3313C49.1217 8.91179 46.4936 8.01392 43.7573 7.4638C36.5201 6.0044 29.5994 6.93648 23.015 10.317C22.5447 10.5565 21.9632 10.6847 21.4416 10.6619C21.2221 10.6534 20.7889 10.0291 20.8601 9.84672C21.0454 9.37355 21.3732 8.83483 21.7979 8.59825C25.4008 6.58588 29.2859 5.40297 33.3762 4.8842C33.6071 4.8557 33.8379 4.82719 33.7097 4.84429C34.3909 3.49036 34.8384 2.2647 35.5881 1.26421C35.9216 0.811001 36.8593 0.634277 37.5263 0.634277C39.3477 0.634277 40.1715 1.79153 40.6047 4.78729C45.3791 5.28895 49.8998 6.74265 54.2125 9.24529C54.6144 8.27616 54.8453 7.32413 55.3697 6.57733C55.803 5.96164 56.5897 5.20914 57.2111 5.21484C57.8353 5.22054 58.4538 6.08706 59.0667 6.58588C59.1322 6.64004 59.1607 6.7512 59.1807 6.84241C59.574 8.67521 60.6686 9.79826 62.49 10.3085C63.5845 10.6163 64.1945 11.4486 63.8696 12.5916C63.7214 13.1076 63.1969 13.575 62.738 13.9313C62.3076 14.2648 61.7403 14.4187 61.1076 14.7066C66.8796 20.8834 69.9323 28.1205 70.3542 36.5491C71.0896 36.5491 71.6996 36.5662 72.3096 36.5463C73.5922 36.5064 73.977 37.1847 73.8345 38.3563C73.4982 41.1268 71.2065 43.3159 68.3447 43.41C65.6397 43.4955 62.929 43.4413 60.2211 43.447C59.765 43.447 59.309 43.447 59.1493 43.447C60.1812 45.4109 61.3954 47.3093 62.1821 49.3701C62.6496 50.5958 62.5242 52.0837 62.49 53.449C62.4814 53.8253 61.843 54.1844 61.4924 54.5493C61.1446 54.1787 60.5831 53.8509 60.4976 53.4262C60.318 52.5569 60.4833 51.6191 60.3465 50.7355C59.6966 46.5255 56.4358 43.544 52.1117 43.4812C44.9886 43.3786 37.8598 43.4499 30.7339 43.447C29.608 43.447 28.7386 43.829 28.6474 45.086C28.5733 46.1121 29.4255 46.7392 30.845 46.7421C35.3116 46.7535 39.7753 46.7478 44.2418 46.7478C44.5753 46.7478 44.906 46.7563 45.2395 46.7478C46.0233 46.725 46.8271 46.9046 46.6875 47.8224C46.6276 48.2243 45.8323 48.6091 45.3022 48.8172C44.8889 48.9768 44.3644 48.8514 43.8884 48.8514C39.7553 48.8514 35.6223 48.8514 31.4892 48.8514C27.5272 48.8514 26.2987 47.5231 26.6151 43.4841C22.6274 43.4841 18.6454 43.4328 14.6663 43.5439C14.1076 43.5611 13.1869 44.3335 13.1185 44.8466C13.0273 45.5478 13.4833 46.4086 13.9195 47.0556C14.1589 47.4119 14.8316 47.4974 15.3247 47.6571C23.7618 50.3877 32.1847 53.1668 40.6504 55.8006C42.7112 56.4419 44.9117 56.7498 47.0694 56.9465C50.1906 57.2315 50.9602 57.7816 51.5303 60.88H60.4406C60.4406 60.0306 60.3151 59.2125 60.4833 58.4572C60.6002 57.9327 61.0448 57.1859 61.4724 57.0833C62.3133 56.8809 62.547 57.6305 62.547 58.3688C62.547 59.7655 62.3133 61.1878 63.633 62.2681C63.9437 62.5218 63.9608 63.2401 63.9665 63.7446C64.0007 66.0705 64.0064 68.3993 63.975 70.7281C63.9494 72.692 63.0401 73.5699 61.0562 73.5784C57.6358 73.5955 54.2153 73.5984 50.7949 73.5784C48.8595 73.567 47.9388 72.6264 47.9217 70.6625C47.9017 68.4306 47.8362 66.1931 47.9587 63.9669C48.0043 63.1403 48.4005 62.2567 48.868 61.5527C49.5464 60.5322 49.2956 59.2496 48.107 59.1612C37.1871 58.3488 27.4816 53.2296 17.109 50.4875C16.2397 50.2566 15.396 49.9317 14.538 49.6552C11.2486 48.5977 10.3337 47.0471 11.0463 43.4328H11.0548ZM3.33313 38.7895C4.09703 40.7221 5.12887 41.3349 7.43483 41.3378C27.3904 41.3378 47.3488 41.3378 67.3043 41.3378C67.7775 41.3378 68.2677 41.3606 68.7209 41.2494C70.0093 40.933 71.0269 40.2831 71.4031 38.7924H3.33313V38.7895ZM56.0538 63.0691C54.489 63.0691 52.9213 63.1061 51.3564 63.0548C50.4785 63.0263 50.0509 63.2458 50.0794 64.2292C50.1364 66.2672 50.1193 68.3109 50.0851 70.349C50.0709 71.1328 50.3417 71.4492 51.1483 71.4435C54.3749 71.415 57.6016 71.4179 60.8282 71.4435C61.6349 71.4492 61.9 71.13 61.8829 70.3404C61.843 68.2995 61.8401 66.2587 61.8829 64.2206C61.9028 63.3684 61.6292 63.0263 60.7484 63.0577C59.1835 63.109 57.6187 63.0719 56.051 63.0719L56.0538 63.0691ZM57.1598 7.81154C56.7037 10.1346 55.3355 11.4971 53.0951 12.2752C55.6263 12.6287 56.47 14.4529 57.2367 16.4767C57.804 14.262 58.9926 12.737 61.3327 12.1755C58.9441 11.614 57.8011 10.0491 57.1569 7.81439L57.1598 7.81154ZM38.4755 4.57636C38.2019 3.88086 38.0879 3.34214 37.7829 2.94879C37.666 2.79772 36.9049 2.86613 36.808 3.04C36.5715 3.46471 36.5543 4.01198 36.4318 4.57636H38.4755Z" fill="#C2B791"/>
<path d="M31.1557 11.0667C31.4009 11.2804 31.9595 11.537 31.9966 11.8562C32.0451 12.2581 31.7258 12.7512 31.4522 13.1246C31.3154 13.3128 30.9391 13.3327 30.6683 13.4097C25.5348 14.8548 21.2963 17.6653 17.8986 21.7613C17.7162 21.9808 17.5566 22.3228 17.3314 22.377C16.8782 22.4853 16.2169 22.625 15.9575 22.3969C15.6924 22.1603 15.7751 21.4991 15.7751 21.023C15.7751 20.8748 15.986 20.7209 16.1057 20.5727C19.8426 15.9807 24.5571 12.8795 30.2636 11.2947C30.4916 11.232 30.7225 11.1807 31.1586 11.0695L31.1557 11.0667Z" fill="#C2B791"/>
<path d="M52.6448 64.2262C53.1094 64.8932 53.6396 65.3322 53.5683 65.6286C53.4714 66.0476 52.9298 66.3669 52.5792 66.726C52.2486 66.3469 51.7298 66.002 51.6557 65.5773C51.6015 65.2723 52.1488 64.8647 52.6419 64.2234L52.6448 64.2262Z" fill="#C2B791"/>
</svg>
