<svg width="43" height="43" viewBox="0 0 43 43" fill="none" xmlns="http://www.w3.org/2000/svg">
<path d="M21.0985 42.9677C9.43611 42.9418 -0.0120224 33.3119 1.14828e-05 21.4634C0.0135496 9.58132 9.52937 -0.0455207 21.2158 0.000161914C32.8647 0.0458445 42.3218 9.71837 42.2827 21.5471C42.2436 33.4017 32.7594 42.992 21.1 42.9662L21.0985 42.9677ZM21.7453 41.5302C33.2603 41.113 41.9382 30.9425 40.7619 19.3848C39.6789 8.73619 30.2894 0.44176 19.1821 1.53357C8.74567 2.56143 0.359525 12.0847 1.52381 23.5785C2.56925 33.8921 11.2788 41.821 21.7453 41.5302Z" fill="white"/>
<path d="M30.8596 21.4757C30.8596 23.7309 30.8626 25.9846 30.8596 28.2397C30.8566 30.2391 29.7795 31.3583 27.8135 31.3629C23.3609 31.3751 18.9084 31.3751 14.4558 31.3629C12.5168 31.3568 11.4263 30.2361 11.4248 28.2839C11.4203 23.7552 11.4203 19.2266 11.4248 14.6994C11.4263 12.7381 12.5078 11.6128 14.4423 11.6067C18.9144 11.5915 23.3865 11.59 27.8586 11.6067C29.7885 11.6143 30.8581 12.7442 30.8626 14.7131C30.8671 16.9683 30.8626 19.222 30.8626 21.4772L30.8596 21.4757ZM21.1392 30.2467C23.385 30.2467 25.6323 30.2483 27.8782 30.2467C29.1447 30.2452 29.76 29.6498 29.763 28.3677C29.7735 23.7796 29.7735 19.1916 29.763 14.602C29.76 13.3183 29.1462 12.7214 27.8812 12.7199C23.388 12.7168 18.8963 12.7168 14.4032 12.7199C13.1366 12.7199 12.5214 13.3168 12.5184 14.5989C12.5078 19.187 12.5078 23.775 12.5184 28.3646C12.5214 29.6483 13.1351 30.2437 14.4002 30.2467C16.646 30.2498 18.8933 30.2467 21.1392 30.2467Z" fill="white"/>
<path d="M26.5168 21.4694C26.5289 24.4814 24.1356 26.9574 21.1978 26.9711C18.1999 26.9848 15.7916 24.5728 15.7645 21.5273C15.7374 18.4909 18.1442 15.9997 21.1106 15.9951C24.098 15.989 26.5048 18.427 26.5168 21.4694ZM21.1452 25.8641C23.5129 25.8595 25.4593 23.8876 25.4623 21.4923C25.4654 19.0894 23.5429 17.125 21.1647 17.1022C18.782 17.0809 16.8115 19.0757 16.819 21.5014C16.825 23.8982 18.779 25.8671 21.1452 25.8641Z" fill="white"/>
<path d="M28.6934 15.4576C28.6904 16.3545 27.9744 17.0794 27.0839 17.0824C26.1873 17.087 25.4743 16.3774 25.4653 15.4713C25.4563 14.547 26.1979 13.7887 27.0989 13.8039C27.9744 13.8192 28.6949 14.5668 28.6934 15.4561V15.4576ZM27.684 15.549C27.6795 15.4622 27.6765 15.3739 27.672 15.2871C27.4554 15.1714 27.2238 14.946 27.0252 14.9734C26.8477 14.9978 26.5739 15.313 26.589 15.4774C26.6055 15.6602 26.8973 15.9495 27.0733 15.951C27.2749 15.9541 27.4795 15.6937 27.684 15.5475V15.549Z" fill="white"/>
</svg>
