<svg width="228" height="337" viewBox="0 0 228 337" fill="none" xmlns="http://www.w3.org/2000/svg">
<g clip-path="url(#clip0_13_219)">
<path d="M-92.1895 337C-92.1085 337 -92.0274 337 -91.9464 336.96C-91.7303 336.892 -69.9286 329.906 -33.7276 304.589C-0.376816 281.256 52.4253 237.111 114.575 159.261C140.739 125.893 146.858 84.5265 147.385 55.7036C147.953 24.5069 142.279 0.849688 142.212 0.6204C142.131 0.283211 141.847 0.0404351 141.509 0.01346C141.172 -0.0135151 140.834 0.161823 140.699 0.472037C110.036 66.5071 112.886 152.666 113.116 158.506C78.8736 201.369 25.5042 261.2 -34.6597 303.281C-70.6445 328.449 -92.2166 335.368 -92.4327 335.422C-92.8649 335.557 -93.0946 336.015 -92.9595 336.434C-92.8514 336.784 -92.5272 337 -92.1895 337ZM141.158 3.34489C142.549 10.0347 146.237 30.3605 145.764 55.7171C145.251 83.7712 139.389 123.802 114.669 156.483C114.278 142.375 113.535 64.6863 141.158 3.34489Z" fill="#437B78"/>
<path d="M140.037 303.645C159.731 303.645 172.199 300.179 172.415 300.125C172.712 300.044 172.929 299.788 172.983 299.491C173.037 299.194 172.915 298.884 172.658 298.695C159.367 289.025 129.474 274 88.9369 263.479C47.6705 252.757 21.8165 257.828 21.5599 257.882C21.2897 257.936 21.0736 258.111 20.979 258.367C20.871 258.61 20.898 258.894 21.0601 259.123C21.5329 259.838 33.3657 276.94 83.0745 294.042C104.863 301.541 124.652 303.659 140.037 303.659V303.645ZM170.295 298.979C162.325 300.813 127.002 307.435 83.6013 292.504C41.2813 277.951 26.5713 263.196 23.2213 259.244C28.9351 258.394 52.9115 255.778 88.5452 265.03C127.461 275.146 156.476 289.389 170.295 298.979Z" fill="#437B78"/>
<path d="M172.983 211.674C213.412 211.674 227.122 198.645 227.757 198.011C227.946 197.822 228.027 197.552 227.987 197.296C227.932 197.04 227.757 196.81 227.514 196.702C227.068 196.5 182.641 177.078 136.998 180.463C116.979 181.947 102.796 186.358 94.4076 189.797C85.2898 193.546 80.9673 196.905 80.7782 197.053C80.5486 197.229 80.4405 197.512 80.481 197.795C80.5216 198.078 80.6972 198.321 80.9673 198.429C81.6832 198.739 99.2974 206.049 154.166 210.824C161.001 211.417 167.255 211.674 172.983 211.674ZM225.65 197.674C223.813 199.09 219.247 202.124 211.061 204.822C200.822 208.18 182.654 211.687 154.315 209.219C108.186 205.213 88.194 199.252 83.034 197.471C87.5997 194.464 104.957 184.456 137.133 182.082C178.183 179.047 218.274 194.625 225.663 197.674H225.65Z" fill="#437B78"/>
<path d="M55.1403 226.861C55.2889 226.861 55.451 226.82 55.5725 226.739C55.7481 226.618 55.8832 226.443 55.9238 226.227C56.0318 225.728 66.5544 175.5 51.8714 130.829C37.2154 86.2395 9.03809 49.9175 8.75442 49.5533C8.5518 49.2971 8.2141 49.1892 7.90342 49.2701C7.59274 49.3645 7.3496 49.6342 7.30907 49.9579C7.28206 50.1737 4.91819 71.3357 14.1981 111.259C17.1698 124.032 19.5607 137.007 21.884 149.55C29.1242 188.677 35.3648 222.477 54.9512 226.847C55.0052 226.847 55.0728 226.861 55.1268 226.861H55.1403ZM8.78144 52.2643C14.4682 59.9252 37.5666 92.4707 50.345 131.342C63.8663 172.479 55.8022 218.404 54.5189 225.067C36.6076 220.157 30.529 187.261 23.505 149.253C21.1816 136.696 18.7772 123.694 15.8055 110.895C8.25463 78.4032 8.45725 58.4821 8.78144 52.2643Z" fill="#437B78"/>
<path d="M179.129 201.423C208.184 201.423 227.081 198.281 227.338 198.24C227.784 198.159 228.081 197.741 228 197.309C227.919 196.864 227.5 196.568 227.068 196.649C226.744 196.703 194.271 202.098 148.912 198.672C103.39 195.232 81.4536 196.864 81.2374 196.878C80.7917 196.918 80.454 197.296 80.4945 197.755C80.535 198.2 80.9132 198.51 81.3725 198.496C81.5886 198.483 103.404 196.864 148.79 200.29C159.745 201.113 169.943 201.423 179.129 201.423Z" fill="#437B78"/>
<path d="M55.1403 226.861C55.3699 226.861 55.5861 226.766 55.7481 226.577C56.0453 226.24 56.0048 225.728 55.6671 225.444C55.505 225.296 43.8342 214.169 37.3235 157.305C30.7181 99.619 9.07861 50.2141 8.86248 49.7285C8.68688 49.3239 8.20058 49.1351 7.79535 49.3104C7.39011 49.4858 7.20101 49.9713 7.37661 50.3759C7.59274 50.8615 29.1377 100.051 35.7025 157.481C42.3349 215.369 54.1002 226.213 54.5865 226.645C54.7351 226.78 54.9242 226.847 55.1133 226.847L55.1403 226.861Z" fill="#437B78"/>
<path d="M113.94 157.872C114.264 157.872 114.575 157.67 114.696 157.346C114.858 156.914 131.068 113.215 131.068 79.1855C131.068 45.1564 142.104 1.44326 142.212 1.01166C142.32 0.580061 142.063 0.134972 141.631 0.0270716C141.199 -0.0808288 140.753 0.175435 140.645 0.607036C140.537 1.05213 129.447 45.2104 129.447 79.199C129.447 113.188 113.346 156.348 113.183 156.793C113.021 157.211 113.237 157.683 113.656 157.831C113.751 157.872 113.845 157.885 113.94 157.885V157.872Z" fill="#437B78"/>
<path d="M172.186 300.152C172.631 300.152 172.983 299.801 172.996 299.356C172.996 298.911 172.645 298.547 172.199 298.533C171.861 298.533 137.889 297.805 100.513 288.701C76.5502 282.874 56.0588 273.082 41.1057 265.947C32.6633 261.915 25.9769 258.732 21.8976 257.882C21.4518 257.788 21.0331 258.071 20.9385 258.516C20.8439 258.947 21.1276 259.379 21.5733 259.473C25.4771 260.283 32.069 263.425 40.4168 267.418C55.4375 274.593 76.0234 284.412 100.135 290.293C137.7 299.437 171.834 300.165 172.172 300.165H172.186V300.152Z" fill="#437B78"/>
</g>
<defs>
<clipPath id="clip0_13_219">
<rect width="321" height="337" fill="white" transform="matrix(-1 0 0 1 228 0)"/>
</clipPath>
</defs>
</svg>
